<svg version="1.2" width="290.78mm" height="40.48mm" viewBox="0 0 29078 4048" preserveAspectRatio="xMidYMid" fill-rule="evenodd" stroke-width="28.222" stroke-linejoin="round" xmlns="http://www.w3.org/2000/svg"><defs class="ClipPathGroup"><clipPath id="a" clipPathUnits="userSpaceOnUse"><path d="M0 0h29078v4048H0z"/></clipPath></defs><g class="SlideGroup"><g class="Slide" clip-path="url(#a)"><g class="Page"><g class="Graphic"><path class="BoundingBox" fill="none" d="M0 0h29078v4048H0z"/><defs><clipPath id="b" clipPathUnits="userSpaceOnUse"><path d="M0 0h29077v4047H0V0z"/></clipPath></defs><g clip-path="url(#b)"><path fill="#1B49A6" d="M6411 0v1573L7824 0h1307L7696 1495l1479 2447H8079L7004 2193l-593 603v1146h-986V0h986zm4244 2104L9159 0h1151l837 1362L11983 0h1153l-1496 2104v1838h-985V2104zm4519 1108c520 0 664-205 664-460 0-327-122-470-487-470h-981v930h804zm-815-1661h820c316 0 515-122 515-410 0-332-189-410-515-410h-820v820zM15345 0c798 0 1335 277 1335 1013 0 504-288 770-825 892v11c537 39 970 321 970 903 0 813-610 1123-1612 1123h-1795V0h1927zm3849 4054c-753 0-1666-405-1666-1484V0h985v2486c0 443 172 770 681 770 516 0 688-327 688-770V0h986v2570c0 1079-915 1484-1674 1484zm3535-2260h903c315-5 526-166 526-532 0-365-211-526-526-531h-903v1063zM23714 0c887 0 1430 410 1430 1295 0 510-322 920-815 1064l904 1583h-1104l-775-1417h-625v1417h-987V0h1972zm5340 3942h-3384v-736l2193-2442h-2022V0h3224v769l-2166 2409h2155v764z"/><path fill="#ED1C24" d="M3946 3942H0V0h3946v3942z"/><path fill="#FFF" d="M3208 1582h-845V736h-781v846H736v775h846v845h781v-845h845v-775z"/></g></g></g></g></g></svg>
